# xmcd
# 
# Track frame offsets:
#     150
#     15053
#     39386
#     59299
#     79452
#     90617
#     117432
#     128352
#     149712
# 
# Disc length: 2203
# 
# Revision: 0
# Processed by: cddbd v1.5.2PL0 Copyright (c) Steve Scherf et al.
# Submitted via: fre:ac v1.0.17
# 
DISCID=6e089909
DTITLE=Roy Buchanan - That큦 What I Am Here For
DYEAR=1973
DGENRE=Blues
TTITLE0=My Baby Says She큦 Gonna Leave Me
TTITLE1=Hey Joe
TTITLE2=Home Is Where I Lost Her
TTITLE3=Rodney큦 Song
TTITLE4=That큦 What I Am Here For
TTITLE5=Roy큦Bluz
TTITLE6=Voices
TTITLE7=Please Don t Turn Me Away
TTITLE8=Nephesh
EXTD=
EXTT0=
EXTT1=
EXTT2=
EXTT3=
EXTT4=
EXTT5=
EXTT6=
EXTT7=
EXTT8=
PLAYORDER=
